<svg width="10" height="12" viewBox="0 0 10 12" xmlns="http://www.w3.org/2000/svg"><title>Shape</title><path d="M9.195 6.857C9 6.53 8.733 6.28 8.4 6.097c-.232-.13-.567-.247-1.002-.355.406-.134.734-.302.982-.508.25-.204.438-.44.57-.707.13-.267.198-.55.198-.848 0-.41-.124-.787-.374-1.13-.25-.34-.606-.603-1.068-.788-.18-.07-.393-.124-.626-.167V.007H5.503V1.49H4.487V.007h-1.58V1.49H.5v1.247h.368c.245 0 .41.023.498.065.087.044.148.102.184.175.035.073.054.243.054.51v5.028c0 .263-.018.432-.054.508-.036.075-.097.135-.184.175-.086.04-.252.06-.498.06H.5v1.247h2.408v1.484h1.58v-1.486H5.5v1.483h1.58v-1.61c.267-.05.5-.11.7-.188.544-.212.967-.52 1.263-.923.297-.4.447-.843.447-1.32 0-.403-.097-.764-.295-1.09zm-3.02-3.805c.232.07.41.19.533.358.12.167.183.37.183.608 0 .228-.064.43-.193.605-.13.173-.322.303-.58.39-.255.087-.65.13-1.184.13H3.91v-2.2h1.023c.596 0 1.01.036 1.243.11zM5.15 9.062h-.68c-.226 0-.366-.012-.417-.034-.05-.023-.088-.066-.11-.126-.02-.05-.03-.21-.034-.486V6.463h1.207c.53 0 .924.05 1.182.143.257.095.45.237.58.42.128.185.193.41.193.678 0 .313-.09.583-.273.808-.183.224-.403.374-.664.442-.264.074-.59.11-.986.11z" fill-rule="nonzero" fill="#18BADD"/></svg>
